<svg xmlns="http://www.w3.org/2000/svg" version="1.1" width="656" height="271" viewBox="0 0 656 271">
    <g opacity="0.1">
        <path d="m 404.35,206.73 c 2.28,6.36 4.06,16.02 -1.62,21.09 -7.75,2.77 -12.23,-4.41 -17.72,-8 -1.29,-2.88 -2.23,-5.91 -3.03,-8.96 4.68,3.41 7.22,11.02 13.99,10.23 8.74,2.23 8.67,-9.13 8.38,-14.36 z"
              fill="#212121"/>
        <path d="m 368.85,151.21 c -7.11,-8.44 -15.49,-23.2 -6.78,-33.21 -0.65,3.89 -1.25,7.8 -1.09,11.77 0.32,14.99 15.11,24.2 22.19,36.08 5.97,8.59 8.77,18.95 13.68,28.15 1.82,6.06 7.56,14.88 0.82,19.88 -10.53,2.79 -14.15,-9.72 -20.7,-14.92 -0.96,-1.1 -1.89,-2.22 -2.82,-3.33 -3.15,-7.82 -10.87,-15.27 -19.78,-14.03 -2.86,-0.63 -5.64,-1.3 -8.5,-1.84 16.8,-7.12 28.31,10.62 38.84,20.51 1.75,3.48 9.73,4.81 9.36,-0.31 -3.33,-18.26 -12.06,-35.51 -25.22,-48.75 z"
              fill="#292929"/>
        <path d="m 395.03,183.85 c 6.09,9.56 11.88,19.4 13.31,30.87 -0.63,9.44 0.52,22.45 -4.42,30.18 -5.31,-5.4 -9.02,-13.61 -16.02,-17.98 -0.95,-2.07 -1.82,-4.17 -2.62,-6.3 l -0.27,-0.8 c 5.49,3.59 9.97,10.77 17.72,8 5.68,-5.07 3.9,-14.73 1.62,-21.09 -1.73,-3.92 -3.34,-7.89 -5.26,-11.71 -1.49,-3.67 -4.28,-7.01 -4.06,-11.17 z"
              fill="#1c1b1b"/>
        <path d="m 344.81,219.02 c 0.38,-11 -5.29,-21.37 -4.17,-32.25 3.59,13.24 7.07,26.51 7.31,40.31 l 0.03,0.59 c -1.75,8.03 2.93,15.25 6.08,22.25 2.93,7.22 6.24,14.3 10.1,21.08 l -2.92,0 c -6.75,-16.82 -18.3,-32.97 -16.43,-51.98 z"
              fill="#292929"/>
        <path d="m 396.85,194 c 0.56,0.26 1.68,0.77 2.24,1.02 1.92,3.82 3.53,7.79 5.26,11.71 0.29,5.23 0.36,16.59 -8.38,14.36 -6.77,0.79 -9.31,-6.82 -13.99,-10.23 -2.03,-3.8 -3.46,-7.9 -5.01,-11.9 6.55,5.2 10.17,17.71 20.7,14.92 6.74,-5 1,-13.82 -0.82,-19.88 z"
              fill="#252525"/>
        <path d="m 408.34,214.72 c 1.35,7.42 3.21,14.74 3.63,22.26 -2.07,3.94 -2.47,8.36 -2.99,12.71 -4.73,10.3 -12.87,-1.49 -14.79,-7.73 -3.84,-4.07 -4.92,-9.79 -6.29,-15.04 7,4.37 10.71,12.58 16.02,17.98 4.94,-7.73 3.79,-20.74 4.42,-30.18 z"
              fill="#181817"/>
        <path d="m 354.06,249.92 c -3.15,-7 -7.83,-14.22 -6.08,-22.25 0.87,2.39 1.25,4.87 2,7.33 5.59,11.9 10.2,24.28 16.25,36 l -2.07,0 c -3.86,-6.78 -7.17,-13.86 -10.1,-21.08 z"
              fill="#212120"/>
        <path d="m 416.29,114.24 c 4.91,-2.16 9.83,-7.38 15.73,-5.24 9.58,3.7 17.74,11.94 28.37,12.41 4.34,0.24 7.1,-6.06 11.12,-4.39 -0.36,0.53 -1.06,1.58 -1.42,2.11 -3.25,-2.78 -3.44,6.93 -5.95,7.39 -5.79,-1.58 -11.31,-3.91 -16.99,-5.82 -1.38,-1.25 -3.11,-1.91 -4.86,-2.44 l -0.72,-0.25 c -5.23,-3.61 -16.09,-13.12 -19.73,-3.15 -3.5,5.54 -10.08,3.97 -15.3,2.05 -7.06,-2.7 -17.67,-7.33 -22.7,1.05 -1.08,1.32 -2.03,2.73 -3,4.12 -2.36,-6.53 -10.75,-8.06 -16.73,-6.01 3.87,-4.21 10.24,-2.19 15,-1.31 5.05,-0.69 9.74,-3.45 14.93,-3.72 7.76,-0.96 14.46,6.8 22.25,3.2 z"
              fill="#2d2b2a"/>
        <path d="m 474.07,115.81 c 4.28,-2.7 8.03,2.85 10.5,5.55 7.11,9.85 16.32,17.78 25.62,25.48 7.69,6.39 18.88,10.13 22.76,20.17 4.33,10.41 5.24,21.84 9.71,32.22 8.74,23.1 5.01,48.36 12.56,71.77 l -3.12,0 c -7,-22.31 -2.57,-46.48 -11.64,-68.32 -7.1,-15.65 -7.69,-35.5 -22.73,-46.36 -5.52,-3.75 -9.72,-9.67 -15.81,-12.4 l -0.79,-0.24 c -3.23,-0.56 -7.66,-2.42 -6.49,-6.48 -0.63,-0.07 -1.88,-0.21 -2.5,-0.28 -4.94,-7.71 -10.16,-16.72 -18.07,-21.11 z"
              fill="#2d2c2b"/>
        <path d="m 501.92,143.92 c 6.09,2.73 10.29,8.65 15.81,12.4 15.04,10.86 15.63,30.71 22.73,46.36 9.07,21.84 4.64,46.01 11.64,68.32 l -3.98,0 c -3.06,-22.64 -1.13,-46.33 -10.33,-67.83 -7.39,-15.71 -8.41,-36.54 -24.62,-46.51 -4.2,-3.8 -8.7,-7.55 -11.25,-12.74 z"
              fill="#292929"/>
        <path d="m 513.17,156.66 c 16.21,9.97 17.23,30.8 24.62,46.51 9.2,21.5 7.27,45.19 10.33,67.83 l -2.04,0 c -2.44,-17.17 -0.95,-34.78 -5.5,-51.64 -3.14,-12.75 -9,-24.58 -12.97,-37.06 -2.18,-4.47 -1.94,-10.81 -6.86,-13.45 -0.44,-0.54 -0.88,-1.07 -1.31,-1.6 -2.28,-3.41 -5.09,-6.57 -6.27,-10.59 z"
              fill="#252525"/>
        <path d="m 520.75,168.85 c 4.92,2.64 4.68,8.98 6.86,13.45 3.97,12.48 9.83,24.31 12.97,37.06 4.55,16.86 3.06,34.47 5.5,51.64 l -2.87,0 c -0.32,-1.31 -0.64,-2.6 -0.95,-3.9 0.38,-0.14 1.15,-0.41 1.54,-0.55 -1.72,-21.78 -1.26,-44.25 -10.98,-64.39 -3.46,-7.53 -4.56,-16.09 -8.82,-23.2 -0.33,-3.62 -3.08,-6.52 -3.25,-10.11 z"
              fill="#212121"/>
        <path d="m 524,178.96 c 4.26,7.11 5.36,15.67 8.82,23.2 9.72,20.14 9.26,42.61 10.98,64.39 -0.39,0.14 -1.16,0.41 -1.54,0.55 -3.57,-12.23 -2.06,-25.14 -3.79,-37.65 -0.46,-8.31 -5.94,-15.11 -7.24,-23.25 -3.8,-8.6 -6,-17.96 -7.23,-27.24 z"
              fill="#1e1d1b"/>
        <path d="m 248.11,179.9 c 3.56,2.54 3.13,7.27 2.96,11.11 -0.57,17.27 7.25,33.22 9.92,49.99 1.51,11.01 -4.86,20.43 -9.07,30 l -5.29,0 c 8.35,-15.58 11.37,-34.1 5.52,-51.09 -5.21,-11.96 -0.91,-25.02 -3.9,-37.22 l -0.06,-0.95 c -0.02,-0.46 -0.06,-1.38 -0.08,-1.84 z"
              fill="#2b2b2b"/>
        <path d="m 248.25,182.69 c 2.99,12.2 -1.31,25.26 3.9,37.22 5.85,16.99 2.83,35.51 -5.52,51.09 l -5.88,0 c 7.67,-15.3 14.76,-33.41 8.85,-50.46 -4.07,-11.51 -2,-23.92 -1.65,-35.79 0.08,-0.52 0.23,-1.55 0.3,-2.06 z"
              fill="#272727"/>
        <path d="m 197.12,190.2 c 5.23,-9.01 7.81,-19.28 12.83,-28.34 -2.45,12.91 -7.9,24.96 -13.01,37 -5.46,9.29 -2.9,20.89 -4.78,31.17 0.05,5.24 -1.17,13.78 3.87,17.02 8.16,-7.45 12.57,-18.68 17.86,-28.34 0.09,6.55 -4.2,12.09 -6.45,18.03 -3.89,5.13 -3.42,14.6 -11.69,14.82 -3.05,-0.46 -4.28,-3.37 -5.58,-5.76 -0.54,-2.71 -0.6,-5.49 -1.12,-8.2 -0.47,-2.8 -0.84,-5.63 -1.13,-8.45 0.71,-2.71 1.54,-5.41 1.97,-8.19 1.4,-10.39 0.75,-21.91 7.23,-30.76 z"
              fill="#161615"/>
        <path d="m 198.5,205.81 c 0.8,-11.7 6.83,-22.08 10.34,-33.05 0.61,11.05 -9.33,22.49 -2.45,32.89 5.06,3.16 8.63,-5.89 12.59,-7.74 -0.66,2.32 -1.36,4.62 -2.12,6.91 -3.17,4.15 -6.17,8.5 -10.12,11.98 -6.03,1.79 -8.06,-6.74 -8.24,-10.99 z"
              fill="#1e1e1e"/>
        <path d="m 123.2,115.61 c 12.34,-2.22 18.73,-16.71 31.61,-17.21 5.99,-0.25 9.79,4.66 14.33,7.56 8.01,0.4 14.75,-7.06 23,-3.15 5.98,0.43 8.57,11.5 14.69,6.99 6.46,-5.2 16.8,-5.71 22.51,0.9 7.52,9.35 4.47,22.52 -0.11,32.48 -4.58,9.45 0.73,20.06 4.9,28.6 6.07,0.46 13.58,-0.23 17.67,5.4 4.32,6.86 1.74,15.66 5.23,22.81 5.34,12.04 9.08,24.75 12.6,37.4 3.56,12.85 -5.6,22.71 -10.05,33.61 l -7.66,0 c 4.21,-9.57 10.58,-18.99 9.07,-30 -2.67,-16.77 -10.49,-32.72 -9.92,-49.99 0.17,-3.84 0.6,-8.57 -2.96,-11.11 -0.26,-0.27 -0.78,-0.79 -1.04,-1.06 -3.82,-4.41 -10.61,-2.24 -15.48,-1.37 -6.48,2.86 -7.88,-4.34 -9.65,-8.45 -8.8,-18.78 18,-35 5.96,-53.87 -1.14,-2.38 -3.37,-3.8 -5.91,-4.29 l -0.82,-0.21 c -8.05,-4.62 -12.64,6.27 -19.94,5.2 -3.95,-5.06 -8.76,-11.49 -16.24,-9.94 -6.06,-0.26 -11.98,6.81 -17.79,2.8 -4.79,-2.81 -10.28,-8.45 -16.36,-5.94 -8.89,4.42 -15.74,12.3 -24.98,16.21 -4.75,2.02 -8.99,-4.39 -13.31,-1.99 -1.52,-0.33 -2.86,-1.89 -4.45,-1.52 l -0.86,0.39 c -5.98,1.88 -9.47,6.93 -12.22,12.18 -10.38,12.56 -19.96,25.93 -27.67,40.3 -5.57,14.62 -9.07,29.93 -14.36,44.66 -7.03,18.36 -10,38.97 -3.86,58 l -7.86,0 c -5.49,-11.72 -7.12,-24.96 -3.92,-37.63 4.57,-18.1 11.35,-35.6 18.05,-53 10.93,-24.28 28.66,-44.4 44.45,-65.49 6.5,-7.05 16.2,-3.22 23.35,0.73 z"
              fill="#2f2f2f"/>
        <path d="m 150.84,102.77 c 6.08,-2.51 11.57,3.13 16.36,5.94 5.81,4.01 11.73,-3.06 17.79,-2.8 7.48,-1.55 12.29,4.88 16.24,9.94 7.3,1.07 11.89,-9.82 19.94,-5.2 -4.39,-0.12 -9.37,1.4 -11.87,5.25 -1.47,2.3 -4.15,3.36 -6.15,5.13 -0.47,0.29 -1.43,0.88 -1.9,1.17 -1.96,-2.11 -3.25,-4.65 -4.18,-7.35 -0.4,-1.1 -1.26,-1.95 -2.17,-2.64 -3.79,-5.9 -11.85,-5.06 -17.1,-1.37 -1.56,0.89 -3.13,1.76 -4.75,2.54 -5.11,2.1 -8.98,-0.9 -11.86,-4.82 -2.32,-6.79 -10.56,-4.92 -14.49,-0.57 -6.47,5.74 -13.98,10.04 -20.96,15.08 -1.21,0.39 -2.41,0.81 -3.61,1.22 -1.08,-0.52 -2.13,-1.06 -3.17,-1.64 -2.02,-2.02 -4.13,-3.94 -6.41,-5.66 4.32,-2.4 8.56,4.01 13.31,1.99 9.24,-3.91 16.09,-11.79 24.98,-16.21 z"
              fill="#2c2b2a"/>
        <path d="m 221.99,110.86 c 2.54,0.49 4.77,1.91 5.91,4.29 12.04,18.87 -14.76,35.09 -5.96,53.87 1.77,4.11 3.17,11.31 9.65,8.45 4.87,-0.87 11.66,-3.04 15.48,1.37 -5.72,-2.6 -10.22,3.94 -15.05,3 -5.97,1.63 -15.74,5.33 -15.01,-4.83 -4.61,-10.19 1.46,-19.43 3.97,-29.14 3.86,-7.43 8.8,-15.23 7.43,-24.04 -0.19,-2.08 -0.58,-4.15 -1.32,-6.1 -0.95,-2.74 -3.45,-4.57 -5.1,-6.87 z"
              fill="#2b2b2b"/>
        <path d="m 95.02,128.04 c 2.75,-5.25 6.24,-10.3 12.22,-12.18 -5.54,5.21 -9.55,11.65 -13.22,18.23 -6.33,4.51 -10.35,11.47 -12.91,18.58 -4.68,4.85 -8.4,10.75 -10.29,17.24 -0.67,1.29 -1.32,2.6 -1.93,3.93 -5.52,17.46 -9.14,35.51 -15.34,52.79 -4.63,14.32 -2.27,29.6 -1.73,44.37 l -2.69,0 c -6.14,-19.03 -3.17,-39.64 3.86,-58 5.29,-14.73 8.79,-30.04 14.36,-44.66 7.71,-14.37 17.29,-27.74 27.67,-40.3 z"
              fill="#2a2929"/>
        <path d="m 181.48,134.45 c 5.74,-2.74 11.27,-5.87 15.73,-10.48 0.02,0.59 0.07,1.76 0.1,2.34 -2.63,1.99 -5.08,4.28 -6.5,7.31 l -0.76,0.27 c -9.26,0.4 -13.61,10.8 -19.81,16.34 -3.92,4.63 -9.02,15.12 -2.17,19.31 -4.74,7.67 -5.32,18.66 -14.33,23 -2.58,-4.88 -1.27,-10.46 2.12,-14.62 6.95,-9.68 3.64,-23.59 12.87,-31.84 4.61,-3.46 8.92,-7.34 12.75,-11.63 z"
              fill="#181716"/>
        <path d="m 228.41,123.83 c 1.37,8.81 -3.57,16.61 -7.43,24.04 -8.57,13.9 -12.87,31.07 -8.79,47.11 4.44,-0.04 7.66,-3.82 11.7,-5.24 -1.24,2.95 -3.02,5.61 -4.91,8.17 -3.96,1.85 -7.53,10.9 -12.59,7.74 -6.88,-10.4 3.06,-21.84 2.45,-32.89 2.82,-8.4 7.02,-16.35 8.97,-25.02 3.25,-5.7 6.57,-11.38 8.44,-17.72 0.91,-1.99 1.65,-4.06 2.16,-6.19 z"
              fill="#212121"/>
        <path d="m 170.24,150.23 c 6.2,-5.54 10.55,-15.94 19.81,-16.34 -5.06,6.89 -12.63,12.03 -14.29,21.01 -3.62,4.3 -4.28,10.2 -7.69,14.64 -6.85,-4.19 -1.75,-14.68 2.17,-19.31 z"
              fill="#1d1b1b"/>
        <path d="m 211.97,157.84 c 1.83,-3.43 3.73,-6.83 5.84,-10.1 -1.95,8.67 -6.15,16.62 -8.97,25.02 -3.51,10.97 -9.54,21.35 -10.34,33.05 0.18,4.25 2.21,12.78 8.24,10.99 3.95,-3.48 6.95,-7.83 10.12,-11.98 -0.05,0.46 -0.14,1.38 -0.18,1.85 -0.61,2.53 -1.35,5.05 -2.59,7.36 -4.46,5.9 -7.46,13.07 -13.43,17.74 -3,1.57 -5.12,-2.84 -4.12,-5.35 -0.43,-9.21 -2.24,-18.52 0.4,-27.56 5.11,-12.04 10.56,-24.09 13.01,-37 0.69,-1.33 1.36,-2.67 2.02,-4.02 z"
              fill="#1b1b1b"/>
        <path d="m 212.19,194.98 c -4.08,-16.04 0.22,-33.21 8.79,-47.11 -2.51,9.71 -8.58,18.95 -3.97,29.14 -0.73,10.16 9.04,6.46 15.01,4.83 -1.43,1.23 -2.81,2.5 -4.13,3.85 -1.37,1.32 -2.71,2.66 -4,4.05 -4.04,1.42 -7.26,5.2 -11.7,5.24 z"
              fill="#262525"/>
        <path d="m 53.55,226.63 c 6.2,-17.28 9.82,-35.33 15.34,-52.79 -0.69,17.17 -6.33,33.45 -11.07,50.09 -0.4,1.24 -0.78,2.48 -1.2,3.72 -0.65,1 -1.36,1.99 -1.71,3.15 -0.77,13.4 -0.41,26.87 -2.1,40.2 l -0.99,0 c -0.54,-14.77 -2.9,-30.05 1.73,-44.37 z"
              fill="#242221"/>
        <path d="m 192.16,230.03 c 1.88,-10.28 -0.68,-21.88 4.78,-31.17 -2.64,9.04 -0.83,18.35 -0.4,27.56 -1,2.51 1.12,6.92 4.12,5.35 5.97,-4.67 8.97,-11.84 13.43,-17.74 -0.09,1.56 -0.13,3.12 -0.2,4.68 -5.29,9.66 -9.7,20.89 -17.86,28.34 -5.04,-3.24 -3.82,-11.78 -3.87,-17.02 z"
              fill="#181818"/>
        <path d="m 197.07,114.85 c 0.93,2.7 2.22,5.24 4.18,7.35 -1.03,1.62 -2.23,3.16 -3.94,4.11 -0.03,-0.58 -0.08,-1.75 -0.1,-2.34 0.02,-1.03 0.02,-2.06 -0.03,-3.08 -0.03,-2.02 -0.05,-4.03 -0.11,-6.04 z"
              fill="#252121"/>
        <path d="m 250.44,228.72 c -7,-13.86 -5.59,-29.23 -2.49,-43.97 -0.35,11.87 -2.42,24.28 1.65,35.79 5.91,17.05 -1.18,35.16 -8.85,50.46 l -4.97,0 c 7.12,-12.83 15.64,-27.23 14.66,-42.28 z"
              fill="#212121"/>
        <path d="m 230.88,269.15 c 7.41,-9.78 11.33,-21.58 17.07,-32.27 -2.63,12.14 -7.5,23.75 -14.34,34.12 l -3.84,0 c 0.28,-0.46 0.83,-1.39 1.11,-1.85 z"
              fill="#161514"/>
        <path d="m 360.98,129.77 c 0.23,0.3 0.7,0.89 0.93,1.19 0.55,1.72 1.05,3.47 1.88,5.08 5.46,11.11 15.92,18.43 22.05,29.07 3.71,5.93 5.65,12.72 9.19,18.74 -0.22,4.16 2.57,7.5 4.06,11.17 -0.56,-0.25 -1.68,-0.76 -2.24,-1.02 -4.91,-9.2 -7.71,-19.56 -13.68,-28.15 -7.08,-11.88 -21.87,-21.09 -22.19,-36.08 z"
              fill="#252423"/>
        <path d="m 416.2,110.14 c 5.12,-5.63 13.45,-6.73 20.11,-3.43 7.35,4.14 14.42,9.29 22.7,11.33 6.48,-1.13 10.32,-9.76 17.86,-7 11.61,4.67 15.39,18.67 26.14,24.93 8.16,9.02 21.45,7.95 30.45,15.54 8.33,7.56 8.59,19.47 10.23,29.87 2.64,17 11,33.4 8.72,50.96 0.76,13.18 3.31,26.27 7.94,38.66 l -5.13,0 c -7.55,-23.41 -3.82,-48.67 -12.56,-71.77 -4.47,-10.38 -5.38,-21.81 -9.71,-32.22 -3.88,-10.04 -15.07,-13.78 -22.76,-20.17 -9.3,-7.7 -18.51,-15.63 -25.62,-25.48 -2.47,-2.7 -6.22,-8.25 -10.5,-5.55 -0.85,0.41 -1.71,0.82 -2.56,1.21 -4.02,-1.67 -6.78,4.63 -11.12,4.39 -10.63,-0.47 -18.79,-8.71 -28.37,-12.41 -5.9,-2.14 -10.82,3.08 -15.73,5.24 -7.79,3.6 -14.49,-4.16 -22.25,-3.2 -5.19,0.27 -9.88,3.03 -14.93,3.72 -4.76,-0.88 -11.13,-2.9 -15,1.31 -0.35,0.35 -1.05,1.04 -1.4,1.38 l -0.64,0.55 c -8.71,10.01 -0.33,24.77 6.78,33.21 13.16,13.24 21.89,30.49 25.22,48.75 0.37,5.12 -7.61,3.79 -9.36,0.31 -10.53,-9.89 -22.04,-27.63 -38.84,-20.51 -1.04,0.56 -2.03,1.19 -2.98,1.89 -0.32,0.28 -0.96,0.85 -1.27,1.14 -0.52,1.27 -0.8,2.62 -0.98,3.98 -1.12,10.88 4.55,21.25 4.17,32.25 -1.87,19.01 9.68,35.16 16.43,51.98 l -3.02,0 c -5.95,-9.54 -10.96,-19.63 -15.09,-30.09 -5.32,-12.02 -0.54,-24.92 -3.76,-37.3 -1.36,-8.79 -6.9,-19.87 1.38,-26.93 12.84,-6.78 26.8,0.95 37.6,8.01 6.23,1.27 5.32,-7.98 3.58,-11.62 -7.28,-15.09 -23.51,-25.25 -26.47,-42.52 -3.25,-9.41 4.45,-23.3 15.5,-20.41 10.31,3.65 18.81,-6.76 29.06,-2.13 5.27,0.48 11.07,5.75 16.18,2.13 z"
              fill="#2f2f2f"/>
        <path d="m 250.44,228.72 c 0.98,15.05 -7.54,29.45 -14.66,42.28 l -2.17,0 c 6.84,-10.37 11.71,-21.98 14.34,-34.12 0.93,-2.34 1.57,-4.78 2.22,-7.2 l 0.27,-0.96 z"
              fill="#1e1e1e"/>
        <path d="m 340.64,186.77 c 0.18,-1.36 0.46,-2.71 0.98,-3.98 2.88,14.65 8.97,29.02 6.33,44.29 -0.24,-13.8 -3.72,-27.07 -7.31,-40.31 z"
              fill="#292927"/>
    </g>
    <g>
        <path d="m 421.84,114.86 c 3.64,-9.97 14.5,-0.46 19.73,3.15 -6.66,2.44 -14.76,2.78 -19.73,-3.15 z"
              fill="#f9ceaa"/>
        <path d="m 383.84,117.96 c 5.03,-8.38 15.64,-3.75 22.7,-1.05 -5.02,8.05 -15.67,3.82 -22.7,1.05 z"
              fill="#efb792"/>
        <path d="m 364.11,116.07 c 5.98,-2.05 14.37,-0.52 16.73,6.01 -1.68,2.41 -4.35,0.86 -6.28,-0.27 -0.77,4.55 -6.55,5.69 -10.6,6.25 -0.61,-3.68 5.36,-10.67 -1.25,-10.61 0.35,-0.34 1.05,-1.03 1.4,-1.38 z"
              fill="#e6b08c"/>
        <path d="m 406.54,116.91 c 5.22,1.92 11.8,3.49 15.3,-2.05 4.97,5.93 13.07,5.59 19.73,3.15 l 0.72,0.25 c -1.17,2.27 -5.13,5.14 -2.12,7.55 2.1,2.89 8.35,2.52 7.75,6.89 -4.22,1.41 -8.61,2.27 -12.85,3.54 0.54,10.85 5.6,21.39 14.37,28.3 3.06,6.87 6.25,14.08 9.66,20.47 -0.1,2.29 -2.56,3.5 -3.68,5.32 0.08,2.03 1.4,6.25 -2.11,5.47 -5.84,-4.41 -3.14,-11.69 -5.41,-17.82 -3.65,-11.4 -12.55,-19.93 -16.97,-30.94 -2.41,-3.67 -5.74,-7.55 -10.6,-7.58 -5.75,-7.06 -15.82,-12.55 -24.82,-10.65 -4.52,0.1 -10.36,-0.75 -13.41,3.52 -1.2,3.61 0.5,7.3 3.22,9.56 5.66,0.23 10.92,-2.25 16.52,-2.7 3.35,2.84 -2.78,4.4 -4.16,6.56 -2.87,5.42 4.17,9.03 3.71,14.47 -1.85,10.46 8.49,16.41 13.03,24.4 4.43,7.62 7.59,16.16 9.33,24.72 2.32,2.72 3.62,-2.68 5.99,-2.24 3.14,3.56 3.49,11.67 10.24,8.92 8.34,0.53 15.67,-7.67 24,-3.98 4.55,2.03 9.84,1.18 14.22,3.73 4.91,0.17 9.18,-3.53 13.79,-4.83 2.98,0.34 5.95,5.07 8.73,1.78 6.18,-5.85 7.84,9.67 13.99,7.06 1.12,-1.41 3.35,-4.24 4.47,-5.65 2.43,0.83 5.5,4.7 7.74,1.63 0.41,-3.9 -1.73,-7.17 -2.74,-10.74 2.82,-2.41 4.57,3.04 7.05,1.18 1.3,8.14 6.78,14.94 7.24,23.25 1.73,12.51 0.22,25.42 3.79,37.65 0.31,1.3 0.63,2.59 0.95,3.9 l -1.93,0 c -1.32,-7.38 -4.08,-14.48 -5.1,-21.88 -0.13,-5.99 3.05,-12.23 -0.18,-17.88 -1.33,-4.58 -3.74,-10.7 -9.97,-9.36 -2.51,0.07 -2.88,-3.34 -5.05,-3.87 -3.78,0.93 -4.22,6.06 -8,7.05 -2.8,-1.8 -4.65,-4.77 -7.38,-6.67 -6.54,0.61 -12.88,-4.02 -19.22,-0.95 -6.51,2.4 -14.52,-0.17 -19.85,5.12 -3.44,2.31 -4.52,-2.96 -7.18,-3.91 -7.25,-4.27 -14.75,3.31 -22.43,0.47 -3.36,-5.9 -9.65,0.51 -14.79,-1.21 -1.7,-3.07 1.63,-8.22 -2.27,-9.79 -8.89,-3.95 -1.33,-16.82 -10.1,-21.79 -8.72,-7.22 -12.6,-18.79 -13.37,-29.71 -5.8,-7.39 -16.89,-9.92 -21.51,-18.63 -3.27,-3.64 -7.78,-7.21 -12.97,-7.03 -0.23,-0.3 -0.7,-0.89 -0.93,-1.19 -0.16,-3.97 0.44,-7.88 1.09,-11.77 l 0.64,-0.55 c 6.61,-0.06 0.64,6.93 1.25,10.61 4.05,-0.56 9.83,-1.7 10.6,-6.25 1.93,1.13 4.6,2.68 6.28,0.27 0.97,-1.39 1.92,-2.8 3,-4.12 7.03,2.77 17.68,7 22.7,-1.05 z"
              fill="#e1a770"/>
        <path d="m 474.07,115.81 c 7.91,4.39 13.13,13.4 18.07,21.11 -5.07,2.01 -10.75,-0.72 -14.52,-4.15 -2.36,-2.07 -9.4,-4.79 -5.22,-8.37 3.4,-1.65 -1.31,-3.43 -2.31,-5.27 0.36,-0.53 1.06,-1.58 1.42,-2.11 0.85,-0.39 1.71,-0.8 2.56,-1.21 z"
              fill="#fbd6b1"/>
        <path d="m 442.29,118.26 c 1.75,0.53 3.48,1.19 4.86,2.44 2.67,3.32 4.75,6.99 6.22,10.99 4.82,6.02 12.67,7.51 19.29,10.66 6,5.75 6.19,15.84 11.36,21.67 13.01,10.21 18.03,-19.94 2.08,-16.2 -4.79,-0.71 3.12,-6.61 -1.4,-8.55 -3.11,-1.14 -8.68,-1.81 -7.08,-6.5 3.77,3.43 9.45,6.16 14.52,4.15 0.62,0.07 1.87,0.21 2.5,0.28 -1.17,4.06 3.26,5.92 6.49,6.48 -6.18,-1.19 -1.79,11.53 3.38,8.64 3.28,6.43 6.9,14.47 14.93,14.93 0.43,0.53 0.87,1.06 1.31,1.6 0.17,3.59 2.92,6.49 3.25,10.11 1.23,9.28 3.43,18.64 7.23,27.24 -2.48,1.86 -4.23,-3.59 -7.05,-1.18 1.01,3.57 3.15,6.84 2.74,10.74 -2.24,3.07 -5.31,-0.8 -7.74,-1.63 -1.12,1.41 -3.35,4.24 -4.47,5.65 -6.15,2.61 -7.81,-12.91 -13.99,-7.06 -2.78,3.29 -5.75,-1.44 -8.73,-1.78 -4.61,1.3 -8.88,5 -13.79,4.83 -4.38,-2.55 -9.67,-1.7 -14.22,-3.73 -8.33,-3.69 -15.66,4.51 -24,3.98 -6.75,2.75 -7.1,-5.36 -10.24,-8.92 -2.37,-0.44 -3.67,4.96 -5.99,2.24 -1.74,-8.56 -4.9,-17.1 -9.33,-24.72 -4.54,-7.99 -14.88,-13.94 -13.03,-24.4 0.46,-5.44 -6.58,-9.05 -3.71,-14.47 1.38,-2.16 7.51,-3.72 4.16,-6.56 -5.6,0.45 -10.86,2.93 -16.52,2.7 -2.72,-2.26 -4.42,-5.95 -3.22,-9.56 3.05,-4.27 8.89,-3.42 13.41,-3.52 4.78,3.24 9.38,6.78 14.31,9.81 -0.28,7.23 3.59,14.72 4.2,22.21 -3.16,1.5 -9.55,1.82 -5.35,7.43 1.93,5.07 12.54,-0.34 9.46,5.84 -4.84,8.65 4.46,17.07 10.8,21.95 6.37,2.57 1.12,11.49 5.81,15.22 5.01,4.41 12.14,-0.36 15.22,-4.35 -1.4,-3.69 -5.66,-6.27 -6.03,-10.68 2.09,0.34 4.25,0.5 6.12,-0.7 1.08,0.1 2.16,0.19 3.26,0.26 3.51,0.78 2.19,-3.44 2.11,-5.47 1.12,-1.82 3.58,-3.03 3.68,-5.32 -3.41,-6.39 -6.6,-13.6 -9.66,-20.47 -8.77,-6.91 -13.83,-17.45 -14.37,-28.3 4.24,-1.27 8.63,-2.13 12.85,-3.54 0.6,-4.37 -5.65,-4 -7.75,-6.89 -3.01,-2.41 0.95,-5.28 2.12,-7.55 z"
              fill="#eab57e"/>
        <path d="m 464.14,126.52 c 2.51,-0.46 2.7,-10.17 5.95,-7.39 1,1.84 5.71,3.62 2.31,5.27 -4.18,3.58 2.86,6.3 5.22,8.37 -1.6,4.69 3.97,5.36 7.08,6.5 4.52,1.94 -3.39,7.84 1.4,8.55 15.95,-3.74 10.93,26.41 -2.08,16.2 -5.17,-5.83 -5.36,-15.92 -11.36,-21.67 -6.62,-3.15 -14.47,-4.64 -19.29,-10.66 -1.47,-4 -3.55,-7.67 -6.22,-10.99 5.68,1.91 11.2,4.24 16.99,5.82 z"
              fill="#f3c390"/>
        <path d="m 395.51,128.81 c 9,-1.9 19.07,3.59 24.82,10.65 4.86,0.03 8.19,3.91 10.6,7.58 4.42,11.01 13.32,19.54 16.97,30.94 2.27,6.13 -0.43,13.41 5.41,17.82 -1.1,-0.07 -2.18,-0.16 -3.26,-0.26 -2.25,-2.31 -4.45,-4.67 -6.24,-7.33 -0.53,-4.93 -1.17,-11.95 -6.97,-13.18 -0.93,-1.23 -1.85,-2.47 -2.61,-3.81 3.55,-5.94 -2.83,-13.43 -6.94,-17.36 -0.32,-3.48 -3.17,-5.43 -6.42,-5.83 -3.28,-3.57 -6.8,-7.01 -11.05,-9.41 -4.93,-3.03 -9.53,-6.57 -14.31,-9.81 z"
              fill="#cb824f"/>
        <path d="m 361.91,130.96 c 5.19,-0.18 9.7,3.39 12.97,7.03 4.62,8.71 15.71,11.24 21.51,18.63 0.77,10.92 4.65,22.49 13.37,29.71 8.77,4.97 1.21,17.84 10.1,21.79 3.9,1.57 0.57,6.72 2.27,9.79 5.14,1.72 11.43,-4.69 14.79,1.21 3.44,6.38 11.81,-2.19 15.07,3.88 2.72,5.3 9.18,7.46 14.74,7.87 3.95,-3.95 7.52,-10.32 14.29,-8.88 4.9,0.84 9.64,0.86 13.95,-1.75 6.15,2.12 12.53,3.89 17.11,8.79 4.77,-2.3 11.72,-5.07 15.53,0.36 1.82,3.15 5.28,2.4 8.39,1.85 3.23,5.65 0.05,11.89 0.18,17.88 1.02,7.4 3.78,14.5 5.1,21.88 l -14.18,0 c 0.83,-4.73 -0.32,-9.88 -4.18,-12.9 -5.42,-3.02 -6.7,-9.78 -11.84,-13.19 -4.06,-3 4.38,-9.34 -1.28,-10.53 -3.03,0.14 -5.4,3.42 -8.56,2.51 -3.13,-2.55 -1.51,-6.49 -1.2,-9.81 -5.97,-0.68 -12.35,1.12 -18.08,-1.06 -3.59,-1.8 -9.25,2.27 -6.53,6.57 -0.39,5.8 4.98,17.9 -4.07,18.91 -5.03,1.13 -4.53,10.77 -11.07,9.35 -5.89,-3.65 1.26,-9.02 2.65,-12.81 -2.91,-4.98 -9.81,-7.11 -12.71,-12.35 -1.88,-3.8 5.84,-4.32 3.23,-8.05 -0.69,-3.19 -4.16,-0.98 -6.04,-0.28 -6.32,2.74 -8.93,-7.29 -15.09,-5.02 -4.32,-0.19 -10.78,2.42 -12.82,-2.79 -0.18,-4.88 -2.57,-11.63 -8.45,-11.69 -3.59,-4.39 -1.32,-10.91 -4.51,-15.42 -7.4,-11.01 -12.75,-23.54 -21.04,-33.9 0.71,-7.45 -7.33,-9.28 -11.44,-13.61 -3.28,-3.69 -6.25,-7.69 -9.94,-11.01 -0.09,0.53 -0.25,1.59 -0.34,2.12 -0.83,-1.61 -1.33,-3.36 -1.88,-5.08 z"
              fill="#cf8e56"/>
        <path d="m 364.13,133.92 c 3.69,3.32 6.66,7.32 9.94,11.01 4.11,4.33 12.15,6.16 11.44,13.61 8.29,10.36 13.64,22.89 21.04,33.9 3.19,4.51 0.92,11.03 4.51,15.42 0.78,3.94 0.82,7.96 0.08,11.9 3.82,3.48 9.23,4.59 13.44,7.6 6.7,-1.07 16.78,-0.87 20.55,6.52 0.22,4.59 7.16,4.44 6.8,8.83 -8.31,1.51 -16.46,4.41 -22.22,11.03 -4.13,-3.98 -10.66,-6.14 -12.46,-12.05 -0.7,-2.52 -3.13,-3.66 -5.28,-4.71 -0.42,-7.52 -2.28,-14.84 -3.63,-22.26 -1.43,-11.47 -7.22,-21.31 -13.31,-30.87 -3.54,-6.02 -5.48,-12.81 -9.19,-18.74 -6.13,-10.64 -16.59,-17.96 -22.05,-29.07 0.09,-0.53 0.25,-1.59 0.34,-2.12 z"
              fill="#b67243"/>
        <path d="m 442.97,138 c 10.01,-3.47 8.01,13.49 17.54,10.79 0.58,-2.57 3.54,-1.8 5.46,-1.65 7.11,9.02 9.96,20.41 15.58,30.27 1.73,5.72 7.09,9.96 8.45,15.46 -2.89,0.99 -3.53,4.59 -4.7,7.94 1.3,2.26 3.47,4.31 2.7,7.19 -8.74,4.42 -2.97,-6.77 -8.66,-6.4 -5.36,0.06 -7.46,-5.45 -9.47,-9.52 -3.83,-4.95 -7.03,-10.34 -10.52,-15.52 2.15,-10.57 -8.55,-17.49 -14.39,-24.56 -1.24,-4.54 -1.59,-9.32 -1.99,-14 z"
              fill="#f2c18b"/>
        <path d="m 414.02,160.83 c -0.61,-7.49 -4.48,-14.98 -4.2,-22.21 4.25,2.4 7.77,5.84 11.05,9.41 4.41,7.76 9.53,15.09 13.36,23.19 0.76,1.34 1.68,2.58 2.61,3.81 1.91,4.59 3.96,9.18 6.97,13.18 1.79,2.66 3.99,5.02 6.24,7.33 -1.87,1.2 -4.03,1.04 -6.12,0.7 0.37,4.41 4.63,6.99 6.03,10.68 -3.08,3.99 -10.21,8.76 -15.22,4.35 -4.69,-3.73 0.56,-12.65 -5.81,-15.22 -6.34,-4.88 -15.64,-13.3 -10.8,-21.95 3.08,-6.18 -7.53,-0.77 -9.46,-5.84 -4.2,-5.61 2.19,-5.93 5.35,-7.43 z"
              fill="#f4c38c"/>
        <path d="m 504.51,152.32 c -5.17,2.89 -9.56,-9.83 -3.38,-8.64 l 0.79,0.24 c 2.55,5.19 7.05,8.94 11.25,12.74 1.18,4.02 3.99,7.18 6.27,10.59 -8.03,-0.46 -11.65,-8.5 -14.93,-14.93 z"
              fill="#efc295"/>
        <path d="m 465.97,147.14 c 3.92,-4.33 11.37,3.11 9.14,8.88 1.99,6.97 5.96,13.96 6.44,21.39 -5.62,-9.86 -8.47,-21.25 -15.58,-30.27 z"
              fill="#d38755"/>
        <path d="m 420.87,148.03 c 3.25,0.4 6.1,2.35 6.42,5.83 4.11,3.93 10.49,11.42 6.94,17.36 -3.83,-8.1 -8.95,-15.43 -13.36,-23.19 z"
              fill="#a3542e"/>
        <path d="m 436.84,175.03 c 5.8,1.23 6.44,8.25 6.97,13.18 -3.01,-4 -5.06,-8.59 -6.97,-13.18 z"
              fill="#9c4c29"/>
        <path d="m 342.89,181.65 c 0.95,-0.7 1.94,-1.33 2.98,-1.89 2.86,0.54 5.64,1.21 8.5,1.84 0.91,2.56 -2.57,3.11 -2.46,5.52 2.78,-0.86 5.51,-1.85 8.28,-2.78 3.71,10.64 3.11,21.88 4.49,32.85 -0.31,4.48 6.91,5.94 8.94,2.42 1.08,-4.22 2.3,-8.45 2.84,-12.79 -1.17,-3.58 -3.9,-7.32 -2.31,-11.19 0.93,1.11 1.86,2.23 2.82,3.33 1.55,4 2.98,8.1 5.01,11.9 0.8,3.05 1.74,6.08 3.03,8.96 l 0.27,0.8 c -2.94,4.04 -3.94,9.63 -9.4,11.38 -6.94,3.2 -5.4,-5.97 -11.48,-5.52 -8.19,-7.56 -3.56,-20.76 -4.32,-30.32 -1.73,0.47 -3.43,1.01 -5.14,1.54 -7.5,-3.41 -2.81,-15.28 -12.05,-16.05 z"
              fill="#e6ad7d"/>
        <path d="m 354.37,181.6 c 8.91,-1.24 16.63,6.21 19.78,14.03 -1.59,3.87 1.14,7.61 2.31,11.19 -0.54,4.34 -1.76,8.57 -2.84,12.79 -2.03,3.52 -9.25,2.06 -8.94,-2.42 -1.38,-10.97 -0.78,-22.21 -4.49,-32.85 -2.77,0.93 -5.5,1.92 -8.28,2.78 -0.11,-2.41 3.37,-2.96 2.46,-5.52 z"
              fill="#f2c092"/>
        <path d="m 341.62,182.79 c 0.31,-0.29 0.95,-0.86 1.27,-1.14 9.24,0.77 4.55,12.64 12.05,16.05 -2.22,1.19 -5.92,4.77 -2.17,6.43 6.18,1.1 0,7.39 0.89,11.24 1.22,2.8 2.33,5.62 0.5,8.44 -2.33,7.11 4.75,9.9 6.62,15.42 8.94,2.03 11.52,13.99 12.25,21.82 -9.26,-8.82 -11.19,-22.89 -23,-29.13 -0.01,0.77 -0.04,2.31 -0.05,3.08 -0.75,-2.46 -1.13,-4.94 -2,-7.33 l -0.03,-0.59 c 2.64,-15.27 -3.45,-29.64 -6.33,-44.29 z"
              fill="#be7b4d"/>
        <path d="m 354.94,197.7 c 1.71,-0.53 3.41,-1.07 5.14,-1.54 0.76,9.56 -3.87,22.76 4.32,30.32 6.08,-0.45 4.54,8.72 11.48,5.52 5.46,-1.75 6.46,-7.34 9.4,-11.38 0.8,2.13 1.67,4.23 2.62,6.3 1.37,5.25 2.45,10.97 6.29,15.04 0.9,3.3 -3.54,6.59 -0.41,9.23 1.58,1.94 5.22,1.52 5.71,4.37 1.78,3.18 -2.21,6.2 -0.48,9.35 0.9,2.68 3.5,4.18 5.41,6.09 l -24.4,0 c -1.06,-5.91 2.38,-13.78 -2.66,-18.35 -3.45,-4.86 -6.81,-10 -8.11,-15.89 -6.95,-1.36 -10.33,-8.33 -15.09,-12.95 1.83,-2.82 0.72,-5.64 -0.5,-8.44 -0.89,-3.85 5.29,-10.14 -0.89,-11.24 -3.75,-1.66 -0.05,-5.24 2.17,-6.43 z"
              fill="#dfa26c"/>
        <path d="m 411.06,207.86 c 5.88,0.06 8.27,6.81 8.45,11.69 2.04,5.21 8.5,2.6 12.82,2.79 6.16,-2.27 8.77,7.76 15.09,5.02 1.88,-0.7 5.35,-2.91 6.04,0.28 2.61,3.73 -5.11,4.25 -3.23,8.05 2.9,5.24 9.8,7.37 12.71,12.35 -1.39,3.79 -8.54,9.16 -2.65,12.81 6.54,1.42 6.04,-8.22 11.07,-9.35 9.05,-1.01 3.68,-13.11 4.07,-18.91 -2.72,-4.3 2.94,-8.37 6.53,-6.57 5.73,2.18 12.11,0.38 18.08,1.06 -0.31,3.32 -1.93,7.26 1.2,9.81 3.16,0.91 5.53,-2.37 8.56,-2.51 5.66,1.19 -2.78,7.53 1.28,10.53 5.14,3.41 6.42,10.17 11.84,13.19 3.86,3.02 5.01,8.17 4.18,12.9 l -92.62,0 c -5.57,-7.28 -10.3,-22.98 -22.31,-18.1 -1.39,-0.66 -2.13,-2.16 -3.19,-3.21 0.52,-4.35 0.92,-8.77 2.99,-12.71 2.15,1.05 4.58,2.19 5.28,4.71 1.8,5.91 8.33,8.07 12.46,12.05 5.76,-6.62 13.91,-9.52 22.22,-11.03 0.36,-4.39 -6.58,-4.24 -6.8,-8.83 -3.77,-7.39 -13.85,-7.59 -20.55,-6.52 -4.21,-3.01 -9.62,-4.12 -13.44,-7.6 0.74,-3.94 0.7,-7.96 -0.08,-11.9 z"
              fill="#c48147"/>
        <path d="m 486.38,217.44 c 6.34,-3.07 12.68,1.56 19.22,0.95 2.73,1.9 4.58,4.87 7.38,6.67 3.78,-0.99 4.22,-6.12 8,-7.05 2.17,0.53 2.54,3.94 5.05,3.87 6.23,-1.34 8.64,4.78 9.97,9.36 -3.11,0.55 -6.57,1.3 -8.39,-1.85 -3.81,-5.43 -10.76,-2.66 -15.53,-0.36 -4.58,-4.9 -10.96,-6.67 -17.11,-8.79 -4.31,2.61 -9.05,2.59 -13.95,1.75 -6.77,-1.44 -10.34,4.93 -14.29,8.88 -5.56,-0.41 -12.02,-2.57 -14.74,-7.87 -3.26,-6.07 -11.63,2.5 -15.07,-3.88 7.68,2.84 15.18,-4.74 22.43,-0.47 2.66,0.95 3.74,6.22 7.18,3.91 5.33,-5.29 13.34,-2.72 19.85,-5.12 z"
              fill="#d99c60"/>
        <path d="m 354.16,223.81 c 4.76,4.62 8.14,11.59 15.09,12.95 1.3,5.89 4.66,11.03 8.11,15.89 5.04,4.57 1.6,12.44 2.66,18.35 l -1.97,0 c -1.64,-3.34 -2.83,-6.92 -5.02,-9.95 -0.73,-7.83 -3.31,-19.79 -12.25,-21.82 -1.87,-5.52 -8.95,-8.31 -6.62,-15.42 z"
              fill="#d28f5a"/>
        <path d="m 350.03,231.92 c 11.81,6.24 13.74,20.31 23,29.13 2.19,3.03 3.38,6.61 5.02,9.95 l -11.82,0 c -6.05,-11.72 -10.66,-24.1 -16.25,-36 0.01,-0.77 0.04,-2.31 0.05,-3.08 z"
              fill="#a76237"/>
        <path d="m 394.19,241.96 c 1.92,6.24 10.06,18.03 14.79,7.73 1.06,1.05 1.8,2.55 3.19,3.21 12.01,-4.88 16.74,10.82 22.31,18.1 l -30.06,0 c -1.91,-1.91 -4.51,-3.41 -5.41,-6.09 -1.73,-3.15 2.26,-6.17 0.48,-9.35 -0.49,-2.85 -4.13,-2.43 -5.71,-4.37 -3.13,-2.64 1.31,-5.93 0.41,-9.23 z"
              fill="#ca8852"/>
        <path d="m 146.7,107.99 c 3.93,-4.35 12.17,-6.22 14.49,0.57 -3.71,5.84 -13.08,7.82 -14.49,-0.57 z"
              fill="#f8d0b3"/>
        <path d="m 125.74,123.07 c 6.98,-5.04 14.49,-9.34 20.96,-15.08 1.41,8.39 10.78,6.41 14.49,0.57 2.88,3.92 6.75,6.92 11.86,4.82 10.31,6.28 0.58,14.43 -3.84,20.87 -4.07,3.35 -8.89,5.69 -12.91,9.11 -0.54,6.61 0.15,17.53 -8.46,19.41 -3.5,1.12 -9.68,6.39 -11.15,0.42 -5.13,-6.3 -0.63,-14.67 6.05,-17.38 4.62,-1.16 -0.96,-6.7 2.6,-8.51 6.96,-2.32 5.36,-9.83 7.65,-15.45 -5.31,1.76 -9.25,6.09 -13.89,9.06 0.24,-3.08 -1.15,-7.29 -4.99,-6.64 -2.69,-0.47 -7.74,2.65 -8.37,-1.2 z"
              fill="#edbc87"/>
        <path d="m 177.8,110.84 c 5.25,-3.69 13.31,-4.53 17.1,1.37 -0.16,0.21 -0.49,0.62 -0.66,0.83 -3.85,5.36 -11.88,0.6 -16.44,-2.2 z"
              fill="#efb693"/>
        <path d="m 173.05,113.38 c 1.62,-0.78 3.19,-1.65 4.75,-2.54 4.56,2.8 12.59,7.56 16.44,2.2 2.96,6.99 -6.12,11.86 -11.9,11.29 -5.1,5.26 -9.15,11.61 -15.06,16.05 -9.43,9.53 -6.04,23.91 -13.77,34.13 -3.14,5.74 -3.17,12.95 -1.46,19.12 0.49,-0.07 1.48,-0.19 1.98,-0.26 4.67,-0.5 8.94,2.56 11.07,6.55 -13.87,-0.96 -9.38,18.1 1.75,17.16 3.24,-3.97 6.09,-8.8 4.36,-14.14 4.82,3.81 11.34,0.96 11.25,-5.4 0.15,-8.96 7.89,-15.42 7.82,-24.35 2.14,-3.53 7.62,-7.93 5.03,-12.47 -6.4,-3.52 -11.94,-10.14 -19.55,-5.82 1.66,-8.98 9.23,-14.12 14.29,-21.01 l 0.76,-0.27 c 6.33,-1.14 6.21,9.27 13.19,6.45 4.93,1.88 11.66,-1.05 10.9,-6.83 -3.31,-5.08 -9.38,-5.23 -14.77,-5.34 0.99,-2.3 2.1,-4.55 3.02,-6.87 2,-1.77 4.68,-2.83 6.15,-5.13 -0.23,6.52 6.58,4.75 11.09,5.7 2.99,0.96 4.6,-2.41 6.7,-3.87 0.74,1.95 1.13,4.02 1.32,6.1 -0.51,2.13 -1.25,4.2 -2.16,6.19 -9.33,4.13 -9.69,16.85 -18.44,21.81 -11.89,6.88 -5.4,24.17 -16.36,31.62 -7.16,5.72 0.5,16.03 -4.79,22.2 -4.22,2.26 -3.05,7.36 -4.91,11.09 -8.31,-0.21 -18.44,4.59 -25.06,-2.44 -3.87,-2.71 -5.6,-6.94 -6.99,-11.25 -7.46,2.02 -10.05,11.24 -16.62,14.88 -2.26,-0.93 -4.27,-3.58 -6.91,-2.76 -7.51,4.96 -16.67,-8.86 -11.17,-15.18 2.43,-2.9 -0.44,-4.95 -2.84,-6.31 1.82,-6.91 5.16,-13.4 6.98,-20.36 0.3,-5.57 9.08,-8.62 4.54,-14.68 1.25,-6.02 5.31,-11.92 10.25,-15.8 2.05,-1.37 -0.66,-3.67 -1.06,-5.35 0.97,-3.09 3.78,-4.76 6.23,-6.58 4.64,-2.97 8.58,-7.3 13.89,-9.06 -2.29,5.62 -0.69,13.13 -7.65,15.45 -3.56,1.81 2.02,7.35 -2.6,8.51 -6.68,2.71 -11.18,11.08 -6.05,17.38 1.47,5.97 7.65,0.7 11.15,-0.42 8.61,-1.88 7.92,-12.8 8.46,-19.41 4.02,-3.42 8.84,-5.76 12.91,-9.11 4.42,-6.44 14.15,-14.59 3.84,-20.87 z"
              fill="#e7af77"/>
        <path d="m 209.3,115.9 c 2.5,-3.85 7.48,-5.37 11.87,-5.25 l 0.82,0.21 c 1.65,2.3 4.15,4.13 5.1,6.87 -2.1,1.46 -3.71,4.83 -6.7,3.87 -4.51,-0.95 -11.32,0.82 -11.09,-5.7 z"
              fill="#f5c7ae"/>
        <path d="m 194.9,112.21 c 0.91,0.69 1.77,1.54 2.17,2.64 0.06,2.01 0.08,4.02 0.11,6.04 -4.82,1.77 -7.67,6.98 -12.96,7.6 -4.62,0.69 -5.29,6.55 -9.25,8.38 -3.25,1.8 -6.95,5.14 -6.24,9.21 -9.23,8.25 -5.92,22.16 -12.87,31.84 -3.39,4.16 -4.7,9.74 -2.12,14.62 l 0.29,0.83 c -0.5,0.07 -1.49,0.19 -1.98,0.26 -1.71,-6.17 -1.68,-13.38 1.46,-19.12 7.73,-10.22 4.34,-24.6 13.77,-34.13 5.91,-4.44 9.96,-10.79 15.06,-16.05 5.78,0.57 14.86,-4.3 11.9,-11.29 0.17,-0.21 0.5,-0.62 0.66,-0.83 z"
              fill="#d4925d"/>
        <path d="m 108.1,115.47 c 1.59,-0.37 2.93,1.19 4.45,1.52 2.28,1.72 4.39,3.64 6.41,5.66 -3.45,4.41 -5.95,9.44 -8.96,14.14 -3.27,-2.34 -6.92,3.71 -9.32,-0.52 -2.4,-2.75 2.8,-3.22 4.32,-4.53 0.22,-3.02 -3.51,-6.02 -0.89,-8.67 0.63,-2.67 5.06,-4.57 3.99,-7.6 z"
              fill="#fdd9b4"/>
        <path d="m 107.24,115.86 0.86,-0.39 c 1.07,3.03 -3.36,4.93 -3.99,7.6 -2.62,2.65 1.11,5.65 0.89,8.67 -1.52,1.31 -6.72,1.78 -4.32,4.53 2.4,4.23 6.05,-1.82 9.32,0.52 -0.78,1.19 -1.78,2.22 -2.77,3.24 -7.07,5.39 -10.19,14.32 -14.07,22.07 -7.15,5.27 -11.8,-2.58 -12.05,-9.43 2.56,-7.11 6.58,-14.07 12.91,-18.58 3.67,-6.58 7.68,-13.02 13.22,-18.23 z"
              fill="#f2c491"/>
        <path d="m 184.22,128.49 c 5.29,-0.62 8.14,-5.83 12.96,-7.6 0.05,1.02 0.05,2.05 0.03,3.08 -4.46,4.61 -9.99,7.74 -15.73,10.48 -3.83,4.29 -8.14,8.17 -12.75,11.63 -0.71,-4.07 2.99,-7.41 6.24,-9.21 3.96,-1.83 4.63,-7.69 9.25,-8.38 z"
              fill="#b06941"/>
        <path d="m 201.25,122.2 c 0.47,-0.29 1.43,-0.88 1.9,-1.17 -0.92,2.32 -2.03,4.57 -3.02,6.87 5.39,0.11 11.46,0.26 14.77,5.34 0.76,5.78 -5.97,8.71 -10.9,6.83 -6.98,2.82 -6.86,-7.59 -13.19,-6.45 1.42,-3.03 3.87,-5.32 6.5,-7.31 1.71,-0.95 2.91,-2.49 3.94,-4.11 z"
              fill="#ebba87"/>
        <path d="m 110,136.79 c 3.01,-4.7 5.51,-9.73 8.96,-14.14 1.04,0.58 2.09,1.12 3.17,1.64 -1.41,1.41 -2.85,2.79 -4.16,4.28 -3.36,5.61 -5.75,12.08 -7.79,18.31 5.22,7.25 -6.27,10.68 -7.96,16.94 3.55,5.05 7.86,10.99 14.98,9.37 -0.79,8.38 -10.79,12.89 -9.58,21.56 1.65,6.8 -9.11,6.71 -10.09,12.67 -1.36,3.63 -1.67,12.26 -8.19,9.45 -1.73,-2.08 -3.28,-4.35 -4.29,-6.86 0.97,-4.19 6.56,-7.51 4,-12.03 -4.82,-12.36 16.52,-15.95 11.54,-28.61 -3.84,-6.54 2.19,-12.95 7.24,-16.64 -0.52,-2.99 -3.01,-6.78 -0.55,-9.45 0.94,-1.23 3.05,-3.81 -0.05,-3.25 0.99,-1.02 1.99,-2.05 2.77,-3.24 z"
              fill="#e5ad74"/>
        <path d="m 122.13,124.29 c 1.2,-0.41 2.4,-0.83 3.61,-1.22 0.63,3.85 5.68,0.73 8.37,1.2 3.84,-0.65 5.23,3.56 4.99,6.64 -2.45,1.82 -5.26,3.49 -6.23,6.58 -1.4,2.54 -2.77,5.11 -4.43,7.51 -1.78,-1.98 -4.39,-2.64 -6.67,-3.79 -1.27,-4 -0.01,-9.57 -3.8,-12.64 1.31,-1.49 2.75,-2.87 4.16,-4.28 z"
              fill="#f8cf9d"/>
        <path d="m 110.18,146.88 c 2.04,-6.23 4.43,-12.7 7.79,-18.31 3.79,3.07 2.53,8.64 3.8,12.64 2.28,1.15 4.89,1.81 6.67,3.79 -7.33,7.69 -8.51,18.43 -11.24,28.19 -7.12,1.62 -11.43,-4.32 -14.98,-9.37 1.69,-6.26 13.18,-9.69 7.96,-16.94 z"
              fill="#eeba85"/>
        <path d="m 207.81,151.83 c 8.75,-4.96 9.11,-17.68 18.44,-21.81 -1.87,6.34 -5.19,12.02 -8.44,17.72 -2.11,3.27 -4.01,6.67 -5.84,10.1 -2.83,0.18 -6.99,0.9 -7.66,4.12 2.4,10.49 -9.46,16.69 -9.57,26.92 -6.38,10.38 -4.36,24.4 -13.99,33 -12.09,1.78 -22.6,-6.02 -33.67,-7.91 -5.22,3.5 -9.87,8.74 -16.97,7.76 -7.23,-2.32 -14.36,-5.36 -22,-5.87 -3.43,-0.82 -3.88,-5.03 -4.49,-7.92 -5.47,3.36 -8.34,16.67 -16.39,11.86 -3.43,-2.89 -12.52,4.33 -10.82,-4.38 -1.03,-3.93 -5.13,4.07 -7.17,4.84 -2.5,4.99 -8.77,-0.47 -11.42,3.67 4.74,-16.64 10.38,-32.92 11.07,-50.09 0.61,-1.33 1.26,-2.64 1.93,-3.93 1.47,-4.95 11.87,-8.84 7.88,0.67 -5.94,5.49 -9.92,25.64 3.09,25.13 3.97,-5.4 1.2,-12.38 4.82,-17.89 0.4,-6.07 4.91,-10.15 6.55,-15.72 3.88,-7.75 7,-16.68 14.07,-22.07 3.1,-0.56 0.99,2.02 0.05,3.25 -2.46,2.67 0.03,6.46 0.55,9.45 -5.05,3.69 -11.08,10.1 -7.24,16.64 4.98,12.66 -16.36,16.25 -11.54,28.61 2.56,4.52 -3.03,7.84 -4,12.03 1.01,2.51 2.56,4.78 4.29,6.86 6.52,2.81 6.83,-5.82 8.19,-9.45 0.98,-5.96 11.74,-5.87 10.09,-12.67 -1.21,-8.67 8.79,-13.18 9.58,-21.56 2.73,-9.76 3.91,-20.5 11.24,-28.19 1.66,-2.4 3.03,-4.97 4.43,-7.51 0.4,1.68 3.11,3.98 1.06,5.35 -4.94,3.88 -9,9.78 -10.25,15.8 4.54,6.06 -4.24,9.11 -4.54,14.68 -1.82,6.96 -5.16,13.45 -6.98,20.36 2.4,1.36 5.27,3.41 2.84,6.31 -5.5,6.32 3.66,20.14 11.17,15.18 2.64,-0.82 4.65,1.83 6.91,2.76 6.57,-3.64 9.16,-12.86 16.62,-14.88 1.39,4.31 3.12,8.54 6.99,11.25 6.62,7.03 16.75,2.23 25.06,2.44 1.86,-3.73 0.69,-8.83 4.91,-11.09 5.29,-6.17 -2.37,-16.48 4.79,-22.2 10.96,-7.45 4.47,-24.74 16.36,-31.62 z"
              fill="#dba068"/>
        <path d="m 81.11,152.67 c 0.25,6.85 4.9,14.7 12.05,9.43 -1.64,5.57 -6.15,9.65 -6.55,15.72 -3.62,5.51 -0.85,12.49 -4.82,17.89 -13.01,0.51 -9.03,-19.64 -3.09,-25.13 3.99,-9.51 -6.41,-5.62 -7.88,-0.67 1.89,-6.49 5.61,-12.39 10.29,-17.24 z"
              fill="#eab681"/>
        <path d="m 175.76,154.9 c 7.61,-4.32 13.15,2.3 19.55,5.82 2.59,4.54 -2.89,8.94 -5.03,12.47 0.07,8.93 -7.67,15.39 -7.82,24.35 0.09,6.36 -6.43,9.21 -11.25,5.4 1.73,5.34 -1.12,10.17 -4.36,14.14 -11.13,0.94 -15.62,-18.12 -1.75,-17.16 -2.13,-3.99 -6.4,-7.05 -11.07,-6.55 l -0.29,-0.83 c 9.01,-4.34 9.59,-15.33 14.33,-23 3.41,-4.44 4.07,-10.34 7.69,-14.64 z"
              fill="#eebc84"/>
        <path d="m 204.31,161.96 c 0.67,-3.22 4.83,-3.94 7.66,-4.12 -0.66,1.35 -1.33,2.69 -2.02,4.02 -5.02,9.06 -7.6,19.33 -12.83,28.34 -6.48,8.85 -5.83,20.37 -7.23,30.76 -3.38,0.58 -5.72,2.68 -7.42,5.56 -3.93,4.71 -6.38,-5.78 -11.46,-2.55 -8.84,1 -16.17,-10.05 -24.93,-4.9 -4.24,6.08 -13.91,10.02 -20.21,5.1 -7.13,-4.99 -16.44,-3.69 -23.88,-8.18 -4.68,2.71 -6.91,7.89 -10.3,11.88 -5.17,2.7 -5.23,-3.74 -8.99,-4.55 -9.1,-1 -17.28,3 -26.08,4.33 0.42,-1.24 0.8,-2.48 1.2,-3.72 2.65,-4.14 8.92,1.32 11.42,-3.67 2.04,-0.77 6.14,-8.77 7.17,-4.84 -1.7,8.71 7.39,1.49 10.82,4.38 8.05,4.81 10.92,-8.5 16.39,-11.86 0.61,2.89 1.06,7.1 4.49,7.92 7.64,0.51 14.77,3.55 22,5.87 7.1,0.98 11.75,-4.26 16.97,-7.76 11.07,1.89 21.58,9.69 33.67,7.91 9.63,-8.6 7.61,-22.62 13.99,-33 0.11,-10.23 11.97,-16.43 9.57,-26.92 z"
              fill="#d3915a"/>
        <path d="m 142.29,168.3 c 3.35,-1.51 0.64,3.03 0.84,4.71 1.41,3.88 -2.06,7.11 -4.61,9.55 -1.06,3.88 -0.88,9.06 -4.18,11.92 -1.79,4 4.37,2.3 6.57,3.67 3.81,11.48 -11.65,13.94 -19.6,13.53 -3.34,-0.18 -6.44,-3.78 -4.73,-7.03 2.66,-8.72 5.28,-17.72 11.06,-24.98 3.34,-2.62 1.38,-8.84 6.34,-9.68 2.67,3.54 5.56,-0.47 8.31,-1.69 z"
              fill="#eeb97f"/>
        <path d="m 232.02,181.84 c 4.83,0.94 9.33,-5.6 15.05,-3 0.26,0.27 0.78,0.79 1.04,1.06 0.02,0.46 0.06,1.38 0.08,1.84 -7.41,-1.79 -4.13,10.15 -6.13,14.61 -2.03,0.49 -4.09,0.12 -6.12,-0.12 0.72,5.85 -0.76,12.82 2.87,17.96 1.15,1.89 3.65,4.85 1,6.61 -5.16,5.17 -12.77,-1.89 -14.85,-6.77 -4.34,-6.38 0.05,-13.94 1.3,-20.47 1.8,-2.31 3.75,-5.06 1.63,-7.87 1.32,-1.35 2.7,-2.62 4.13,-3.85 z"
              fill="#f6c799"/>
        <path d="m 242.06,196.35 c 2,-4.46 -1.28,-16.4 6.13,-14.61 l 0.06,0.95 c -0.07,0.51 -0.22,1.54 -0.3,2.06 -3.1,14.74 -4.51,30.11 2.49,43.97 l -0.27,0.96 c -3.49,1.37 -5.78,5.51 -10,4.19 -1.09,-0.55 -2.24,-0.99 -3.33,-1.52 9.07,-5.41 7.15,-19.42 3.37,-27.89 5.08,-0.43 4.02,-5.01 1.85,-8.11 z"
              fill="#dca371"/>
        <path d="m 223.89,189.74 c 1.29,-1.39 2.63,-2.73 4,-4.05 2.12,2.81 0.17,5.56 -1.63,7.87 -3.89,3.79 -4.32,9.65 -5.96,14.59 -0.12,3.69 1.81,10.36 -3.66,10.13 4.34,-3.41 2.67,-7.75 0.04,-11.61 0.04,-0.47 0.13,-1.39 0.18,-1.85 0.76,-2.29 1.46,-4.59 2.12,-6.91 1.89,-2.56 3.67,-5.22 4.91,-8.17 z"
              fill="#de9d75"/>
        <path d="m 220.3,208.15 c 1.64,-4.94 2.07,-10.8 5.96,-14.59 -1.25,6.53 -5.64,14.09 -1.3,20.47 2.08,4.88 9.69,11.94 14.85,6.77 2.65,-1.76 0.15,-4.72 -1,-6.61 -3.63,-5.14 -2.15,-12.11 -2.87,-17.96 2.03,0.24 4.09,0.61 6.12,0.12 2.17,3.1 3.23,7.68 -1.85,8.11 3.78,8.47 5.7,22.48 -3.37,27.89 -0.46,-0.2 -1.39,-0.61 -1.85,-0.81 -2.27,-3.22 -6.28,-3.44 -9.81,-2.71 -3.59,-2.55 -7.72,-4.93 -9.39,-9.24 0.21,-0.32 0.63,-0.98 0.85,-1.31 5.47,0.23 3.54,-6.44 3.66,-10.13 z"
              fill="#eab581"/>
        <path d="m 214.09,214.03 c 1.24,-2.31 1.98,-4.83 2.59,-7.36 2.63,3.86 4.3,8.2 -0.04,11.61 -0.22,0.33 -0.64,0.99 -0.85,1.31 1.16,5.66 -0.38,12.32 1.85,18.2 -2.43,1.76 -5.59,3.38 -4.58,6.96 -4.99,-0.1 -6.82,2.66 -6.6,7.1 -6.41,-2.24 -6.24,6.35 -7.96,10.28 -1.06,-3.45 -3.41,-6.82 -2.75,-10.57 8.27,-0.22 7.8,-9.69 11.69,-14.82 2.25,-5.94 6.54,-11.48 6.45,-18.03 0.07,-1.56 0.11,-3.12 0.2,-4.68 z"
              fill="#d18a59"/>
        <path d="m 101.99,215.99 c 7.44,4.49 16.75,3.19 23.88,8.18 6.3,4.92 15.97,0.98 20.21,-5.1 8.76,-5.15 16.09,5.9 24.93,4.9 5.08,-3.23 7.53,7.26 11.46,2.55 1.7,-2.88 4.04,-4.98 7.42,-5.56 -0.43,2.78 -1.26,5.48 -1.97,8.19 -4.15,-1.2 -6.59,1.65 -10.58,1.62 -3.14,-5.67 -9.96,-5.09 -15.59,-5.58 -1.64,-0.64 -3.13,-1.58 -4.66,-2.42 -7.33,-2.19 -12.78,6.93 -19.79,8.57 -8.52,3.15 -12.76,-7.59 -20.94,-6.81 -5.17,0.01 -9.84,-7.33 -14.57,-2.76 -4.82,6.02 -13.66,13.59 -19.92,4.38 -8.86,2.22 -17.74,4.83 -26.96,4.65 0.35,-1.16 1.06,-2.15 1.71,-3.15 8.8,-1.33 16.98,-5.33 26.08,-4.33 3.76,0.81 3.82,7.25 8.99,4.55 3.39,-3.99 5.62,-9.17 10.3,-11.88 z"
              fill="#cb854f"/>
        <path d="m 101.79,221.77 c 4.73,-4.57 9.4,2.77 14.57,2.76 8.18,-0.78 12.42,9.96 20.94,6.81 7.01,-1.64 12.46,-10.76 19.79,-8.57 -8.08,2.42 -6.27,10.99 -7.94,17.08 1.88,3.59 2.45,7.64 3.55,11.43 5.38,0.16 6.35,5.71 8.42,9.7 2.85,-2.81 6.74,-3.93 10.03,-5.81 3.42,-7.22 9.43,-12.71 13.48,-19.49 2.41,-3.63 -4.23,-0.42 -6.35,-1.08 -6.38,-2.2 -9.54,-8.6 -16.53,-9.41 5.63,0.49 12.45,-0.09 15.59,5.58 3.99,0.03 6.43,-2.82 10.58,-1.62 0.29,2.82 0.66,5.65 1.13,8.45 -4.23,10.93 -16.22,20.65 -12.94,33.4 l -28.82,0 c 0,-4.9 -3.76,-8.26 -6.38,-11.95 2.37,1.13 6.01,3.55 8.03,0.65 0.73,-6.23 -3.24,-11.56 -5.66,-16.94 -1.28,-2.3 -4.48,-6.51 -7.08,-3.6 -4.47,2.9 0.28,7.84 -0.13,11.86 -3.5,-4.84 -7.65,1.56 -5.55,5.6 2.21,5 -3.23,10.56 -8.15,10.12 -3.78,-1.07 -6.72,-0.3 -6.56,4.26 l -0.67,0 c 0.25,-4.04 -4.29,-8.79 0.09,-11.78 4.27,-2.98 -1.91,-9.71 2.51,-12.54 3.28,-4.22 9.21,-3.77 13.17,-6.89 -1.3,-6.86 -10.28,-10.28 -16.61,-10.04 -1.22,-3.25 -4.03,-5.23 -7.45,-5.66 -6.18,-0.76 -6.14,8.63 -11.5,10.33 -6.71,3 -10.92,-6.59 -17.62,-3.68 -5.73,2.55 -11.86,3.99 -17.67,6.27 1.46,5.21 7.14,6.89 9.52,11.15 -0.74,7.74 -0.9,15.82 -4.7,22.84 l -12.07,0 c 1.69,-13.33 1.33,-26.8 2.1,-40.2 9.22,0.18 18.1,-2.43 26.96,-4.65 6.26,9.21 15.1,1.64 19.92,-4.38 z"
              fill="#c07c46"/>
        <path d="m 217.64,237.79 c -2.23,-5.88 -0.69,-12.54 -1.85,-18.2 1.67,4.31 5.8,6.69 9.39,9.24 3.53,-0.73 7.54,-0.51 9.81,2.71 -0.5,4.57 -0.68,9.76 -4.09,13.42 -3.58,1.74 -7.19,3.5 -10.83,5.07 -2.38,-1.71 -4.6,-3.62 -7.01,-5.28 -1.01,-3.58 2.15,-5.2 4.58,-6.96 z"
              fill="#db9d67"/>
        <path d="m 149.15,239.85 c 1.67,-6.09 -0.14,-14.66 7.94,-17.08 1.53,0.84 3.02,1.78 4.66,2.42 6.99,0.81 10.15,7.21 16.53,9.41 2.12,0.66 8.76,-2.55 6.35,1.08 -4.05,6.78 -10.06,12.27 -13.48,19.49 -3.29,1.88 -7.18,3 -10.03,5.81 -2.07,-3.99 -3.04,-9.54 -8.42,-9.7 -1.1,-3.79 -1.67,-7.84 -3.55,-11.43 z"
              fill="#b76e3c"/>
        <path d="m 95.35,234.42 c 5.36,-1.7 5.32,-11.09 11.5,-10.33 3.42,0.43 6.23,2.41 7.45,5.66 6.33,-0.24 15.31,3.18 16.61,10.04 -3.96,3.12 -9.89,2.67 -13.17,6.89 -4.42,2.83 1.76,9.56 -2.51,12.54 -4.38,2.99 0.16,7.74 -0.09,11.78 l -50.26,0 c 3.8,-7.02 3.96,-15.1 4.7,-22.84 -2.38,-4.26 -8.06,-5.94 -9.52,-11.15 5.81,-2.28 11.94,-3.72 17.67,-6.27 6.7,-2.91 10.91,6.68 17.62,3.68 z"
              fill="#b6703c"/>
        <path d="m 240.17,233.87 c 4.22,1.32 6.51,-2.82 10,-4.19 -0.65,2.42 -1.29,4.86 -2.22,7.2 -5.74,10.69 -9.66,22.49 -17.07,32.27 -5.77,-7.79 -0.17,-21.72 9.41,-25.88 5.18,-2.87 -3.52,-6.21 -0.12,-9.4 z"
              fill="#b97846"/>
        <path d="m 230.9,244.96 c 3.41,-3.66 3.59,-8.85 4.09,-13.42 0.46,0.2 1.39,0.61 1.85,0.81 1.09,0.53 2.24,0.97 3.33,1.52 -3.4,3.19 5.3,6.53 0.12,9.4 -9.58,4.16 -15.18,18.09 -9.41,25.88 -0.28,0.46 -0.83,1.39 -1.11,1.85 l -3.77,0 c -1.26,-10.12 -10.39,-16.59 -12.94,-26.25 2.41,1.66 4.63,3.57 7.01,5.28 3.64,-1.57 7.25,-3.33 10.83,-5.07 z"
              fill="#d18f57"/>
        <path d="m 136.2,239.16 c 2.6,-2.91 5.8,1.3 7.08,3.6 2.42,5.38 6.39,10.71 5.66,16.94 -2.02,2.9 -5.66,0.48 -8.03,-0.65 -1.81,-2.55 -3.77,-5.05 -4.84,-8.03 0.41,-4.02 -4.34,-8.96 0.13,-11.86 z"
              fill="#cd8a51"/>
        <path d="m 176.11,271 c -3.28,-12.75 8.71,-22.47 12.94,-33.4 0.52,2.71 0.58,5.49 1.12,8.2 -1.08,2.89 -3.28,5.05 -5.26,7.32 -0.76,3.28 2.89,4.33 4.77,6.17 -0.21,2.45 -1.37,5.25 0.68,7.27 4.81,-1.88 4.06,2.14 4.72,4.44 l -18.97,0 z"
              fill="#d1925a"/>
        <path d="m 206.46,251.85 c -0.22,-4.44 1.61,-7.2 6.6,-7.1 2.55,9.66 11.68,16.13 12.94,26.25 l -30.92,0 c -0.66,-2.3 0.09,-6.32 -4.72,-4.44 -2.05,-2.02 -0.89,-4.82 -0.68,-7.27 -1.88,-1.84 -5.53,-2.89 -4.77,-6.17 1.98,-2.27 4.18,-4.43 5.26,-7.32 1.3,2.39 2.53,5.3 5.58,5.76 -0.66,3.75 1.69,7.12 2.75,10.57 1.72,-3.93 1.55,-12.52 7.96,-10.28 z"
              fill="#e1a56d"/>
        <path d="m 130.52,256.62 c -2.1,-4.04 2.05,-10.44 5.55,-5.6 1.07,2.98 3.03,5.48 4.84,8.03 2.62,3.69 6.38,7.05 6.38,11.95 l -31.48,0 c -0.16,-4.56 2.78,-5.33 6.56,-4.26 4.92,0.44 10.36,-5.12 8.15,-10.12 z"
              fill="#b7713b"/>
    </g>
</svg>
